<svg width="124" height="128" viewBox="0 0 124 128" fill="none" xmlns="http://www.w3.org/2000/svg">
<g id="Calque_4">
<g id="Clip path group">
<mask id="mask0_660_646" style="mask-type:luminance" maskUnits="userSpaceOnUse" x="2" y="2" width="120" height="51">
<g id="clippath">
<path id="Vector" d="M121.49 2.48096L118.257 11.4286L70.9106 45.9014L64.6516 50.4566L61.9754 52.4033L59.3019 50.4566L53.0457 45.9014L5.6964 11.4286L2.46313 2.48096L61.9754 32.8758L121.49 2.48096Z" fill="white"/>
</g>
</mask>
<g mask="url(#mask0_660_646)">
<g id="Group">
<path id="Vector_2" d="M121.49 2.48096L118.257 11.4286L70.9106 45.9014L64.6516 50.4566L61.9754 52.4033L59.3019 50.4566L53.0457 45.9014L5.6964 11.4286L2.46313 2.48096L61.9754 32.8758L121.49 2.48096Z" fill="white"/>
<g id="Vector_3" filter="url(#filter0_d_660_646)">
<path d="M52.2292 34.0663L2.46313 2.48389L9.64786 10.6317L44.5338 34.5761L48.1248 41.1973L53.0457 45.9016L59.3019 50.4568L54.7934 43.746L52.2292 34.0663Z" fill="white"/>
</g>
<g id="Vector_4" filter="url(#filter1_d_660_646)">
<path d="M44.5338 34.5761L9.64786 10.6317L2.46313 2.48389L5.6964 11.4288L53.0457 45.9016L48.1248 41.1973L44.5338 34.5761Z" fill="white"/>
</g>
<g id="Vector_5" filter="url(#filter2_d_660_646)">
<path d="M69.1602 43.746L64.6516 50.4568L70.9106 45.9016L75.8288 41.1973L79.4198 34.5761L114.308 10.6317L121.49 2.48389L71.7244 34.0663L69.1602 43.746Z" fill="white"/>
</g>
<g id="Vector_6" filter="url(#filter3_d_660_646)">
<path d="M79.4198 34.5761L75.8288 41.1973L70.9106 45.9016L118.257 11.4288L121.49 2.48389L114.308 10.6317L79.4198 34.5761Z" fill="white"/>
</g>
</g>
</g>
</g>
<path id="Vector_7" d="M93.7864 6.00293L93.374 7.25289L93.0736 8.17205L61.9753 24.8201L30.8797 8.17205L30.5766 7.25289L30.167 6.00293L61.9753 18.9526L93.7864 6.00293Z" fill="white"/>
<g id="Clip path group_2">
<mask id="mask1_660_646" style="mask-type:luminance" maskUnits="userSpaceOnUse" x="30" y="6" width="64" height="19">
<g id="clippath-1">
<path id="Vector_8" d="M93.7864 6.00293L93.374 7.25289L93.0736 8.17205L61.9753 24.8201L30.8797 8.17205L30.5766 7.25289L30.167 6.00293L61.9753 18.9526L93.7864 6.00293Z" fill="white"/>
</g>
</mask>
<g mask="url(#mask1_660_646)">
<g id="Group_2">
<g id="Vector_9" filter="url(#filter4_d_660_646)">
<path d="M30.167 6.00293L61.9753 18.9526L93.7864 6.00293L61.978 22.3012L30.167 6.00293Z" fill="white"/>
</g>
</g>
</g>
</g>
<path id="Vector_10" d="M72.5299 67.4488L109.909 28.7896L105.237 37.8429L80.0587 70.4449L71.2437 118.326L68.6494 125.535L72.5299 67.4488Z" fill="white"/>
<g id="Clip path group_3">
<mask id="mask2_660_646" style="mask-type:luminance" maskUnits="userSpaceOnUse" x="68" y="28" width="42" height="98">
<g id="clippath-2">
<path id="Vector_11" d="M72.5299 67.4488L109.909 28.7896L105.237 37.8429L80.0587 70.4449L71.2437 118.326L68.6494 125.535L72.5299 67.4488Z" fill="white"/>
</g>
</mask>
<g mask="url(#mask2_660_646)">
<g id="Group_3">
<g id="Vector_12" filter="url(#filter5_d_660_646)">
<path d="M75.3917 68.8994L103.912 36.9753L109.909 28.7896L72.5299 67.4488L68.6494 125.535L69.6871 120.901L75.3917 68.8994Z" fill="white"/>
</g>
</g>
</g>
</g>
<g id="Group_4">
<path id="Vector_13" d="M51.4236 67.4488L14.0444 28.7896L18.7168 37.8429L43.8948 70.4449L52.7125 118.326L55.304 125.535L51.4236 67.4488Z" fill="white"/>
<g id="Clip path group_4">
<mask id="mask3_660_646" style="mask-type:luminance" maskUnits="userSpaceOnUse" x="14" y="28" width="42" height="98">
<g id="clippath-3">
<path id="Vector_14" d="M51.4236 67.4488L14.0444 28.7896L18.7168 37.8429L43.8948 70.4449L52.7125 118.326L55.304 125.535L51.4236 67.4488Z" fill="white"/>
</g>
</mask>
<g mask="url(#mask3_660_646)">
<g id="Group_5">
<g id="Vector_15" filter="url(#filter6_d_660_646)">
<path d="M48.5617 68.8994L20.0413 36.9753L14.0444 28.7896L51.4236 67.4488L55.304 125.535L54.2663 120.901L48.5617 68.8994Z" fill="white"/>
</g>
</g>
</g>
</g>
</g>
</g>
<defs>
<filter id="filter0_d_660_646" x="-3.53687" y="-3.51611" width="68.8389" height="59.9727" filterUnits="userSpaceOnUse" color-interpolation-filters="sRGB">
<feFlood flood-opacity="0" result="BackgroundImageFix"/>
<feColorMatrix in="SourceAlpha" type="matrix" values="0 0 0 0 0 0 0 0 0 0 0 0 0 0 0 0 0 0 127 0" result="hardAlpha"/>
<feOffset/>
<feGaussianBlur stdDeviation="3"/>
<feColorMatrix type="matrix" values="0 0 0 0 0 0 0 0 0 0 0 0 0 0 0 0 0 0 1 0"/>
<feBlend mode="normal" in2="BackgroundImageFix" result="effect1_dropShadow_660_646"/>
<feBlend mode="normal" in="SourceGraphic" in2="effect1_dropShadow_660_646" result="shape"/>
</filter>
<filter id="filter1_d_660_646" x="-3.53687" y="-3.51611" width="62.5825" height="55.4175" filterUnits="userSpaceOnUse" color-interpolation-filters="sRGB">
<feFlood flood-opacity="0" result="BackgroundImageFix"/>
<feColorMatrix in="SourceAlpha" type="matrix" values="0 0 0 0 0 0 0 0 0 0 0 0 0 0 0 0 0 0 127 0" result="hardAlpha"/>
<feOffset/>
<feGaussianBlur stdDeviation="3"/>
<feColorMatrix type="matrix" values="0 0 0 0 0 0 0 0 0 0 0 0 0 0 0 0 0 0 1 0"/>
<feBlend mode="normal" in2="BackgroundImageFix" result="effect1_dropShadow_660_646"/>
<feBlend mode="normal" in="SourceGraphic" in2="effect1_dropShadow_660_646" result="shape"/>
</filter>
<filter id="filter2_d_660_646" x="58.6516" y="-3.51611" width="68.8389" height="59.9727" filterUnits="userSpaceOnUse" color-interpolation-filters="sRGB">
<feFlood flood-opacity="0" result="BackgroundImageFix"/>
<feColorMatrix in="SourceAlpha" type="matrix" values="0 0 0 0 0 0 0 0 0 0 0 0 0 0 0 0 0 0 127 0" result="hardAlpha"/>
<feOffset/>
<feGaussianBlur stdDeviation="3"/>
<feColorMatrix type="matrix" values="0 0 0 0 0 0 0 0 0 0 0 0 0 0 0 0 0 0 1 0"/>
<feBlend mode="normal" in2="BackgroundImageFix" result="effect1_dropShadow_660_646"/>
<feBlend mode="normal" in="SourceGraphic" in2="effect1_dropShadow_660_646" result="shape"/>
</filter>
<filter id="filter3_d_660_646" x="64.9106" y="-3.51611" width="62.5798" height="55.4175" filterUnits="userSpaceOnUse" color-interpolation-filters="sRGB">
<feFlood flood-opacity="0" result="BackgroundImageFix"/>
<feColorMatrix in="SourceAlpha" type="matrix" values="0 0 0 0 0 0 0 0 0 0 0 0 0 0 0 0 0 0 127 0" result="hardAlpha"/>
<feOffset/>
<feGaussianBlur stdDeviation="3"/>
<feColorMatrix type="matrix" values="0 0 0 0 0 0 0 0 0 0 0 0 0 0 0 0 0 0 1 0"/>
<feBlend mode="normal" in2="BackgroundImageFix" result="effect1_dropShadow_660_646"/>
<feBlend mode="normal" in="SourceGraphic" in2="effect1_dropShadow_660_646" result="shape"/>
</filter>
<filter id="filter4_d_660_646" x="24.167" y="0.00292969" width="75.6194" height="28.2983" filterUnits="userSpaceOnUse" color-interpolation-filters="sRGB">
<feFlood flood-opacity="0" result="BackgroundImageFix"/>
<feColorMatrix in="SourceAlpha" type="matrix" values="0 0 0 0 0 0 0 0 0 0 0 0 0 0 0 0 0 0 127 0" result="hardAlpha"/>
<feOffset/>
<feGaussianBlur stdDeviation="3"/>
<feColorMatrix type="matrix" values="0 0 0 0 0 0 0 0 0 0 0 0 0 0 0 0 0 0 1 0"/>
<feBlend mode="normal" in2="BackgroundImageFix" result="effect1_dropShadow_660_646"/>
<feBlend mode="normal" in="SourceGraphic" in2="effect1_dropShadow_660_646" result="shape"/>
</filter>
<filter id="filter5_d_660_646" x="62.6494" y="22.7896" width="53.2595" height="108.746" filterUnits="userSpaceOnUse" color-interpolation-filters="sRGB">
<feFlood flood-opacity="0" result="BackgroundImageFix"/>
<feColorMatrix in="SourceAlpha" type="matrix" values="0 0 0 0 0 0 0 0 0 0 0 0 0 0 0 0 0 0 127 0" result="hardAlpha"/>
<feOffset/>
<feGaussianBlur stdDeviation="3"/>
<feColorMatrix type="matrix" values="0 0 0 0 0 0 0 0 0 0 0 0 0 0 0 0 0 0 1 0"/>
<feBlend mode="normal" in2="BackgroundImageFix" result="effect1_dropShadow_660_646"/>
<feBlend mode="normal" in="SourceGraphic" in2="effect1_dropShadow_660_646" result="shape"/>
</filter>
<filter id="filter6_d_660_646" x="8.04443" y="22.7896" width="53.2595" height="108.746" filterUnits="userSpaceOnUse" color-interpolation-filters="sRGB">
<feFlood flood-opacity="0" result="BackgroundImageFix"/>
<feColorMatrix in="SourceAlpha" type="matrix" values="0 0 0 0 0 0 0 0 0 0 0 0 0 0 0 0 0 0 127 0" result="hardAlpha"/>
<feOffset/>
<feGaussianBlur stdDeviation="3"/>
<feColorMatrix type="matrix" values="0 0 0 0 0 0 0 0 0 0 0 0 0 0 0 0 0 0 1 0"/>
<feBlend mode="normal" in2="BackgroundImageFix" result="effect1_dropShadow_660_646"/>
<feBlend mode="normal" in="SourceGraphic" in2="effect1_dropShadow_660_646" result="shape"/>
</filter>
</defs>
</svg>
