<svg width="155" height="28" viewBox="0 0 155 28" fill="none" xmlns="http://www.w3.org/2000/svg">
<path d="M24.0209 7.84759C24.0209 3.51413 20.506 0.00292969 16.168 0.00292969H0L2.3914 4.77781H15.7088C17.5081 4.77781 18.9695 6.23479 18.9695 8.03511C18.9695 9.83543 17.511 11.2924 15.7088 11.2924H4.77992L7.17133 16.0673H15.7088C17.5081 16.0673 18.9695 17.5243 18.9695 19.3246C18.9695 21.1249 17.511 22.5819 15.7088 22.5819H9.55984L11.9512 27.3568H16.168C20.506 27.3568 24.0209 23.8456 24.0209 19.5121C24.0209 17.1983 23.0187 15.1181 21.4216 13.6813C23.0187 12.2445 24.0209 10.1643 24.0209 7.85047V7.84759Z" fill="white"/>
<path d="M40.8849 5.44427L38.5022 0.00292969L36.1021 5.44427L26.4441 27.3539H31.224L38.482 10.8885L40.7463 16.0644H45.5262L40.8849 5.44427Z" fill="white"/>
<path d="M91.4973 22.579C86.5759 22.579 82.5873 18.5946 82.5873 13.6784C82.5873 8.76212 86.5759 4.77777 91.4973 4.77777C94.2411 4.77777 96.6931 6.01548 98.3278 7.96294L101.889 4.77488C99.3791 1.85225 95.6534 0 91.4973 0C83.9361 0 77.8074 6.12224 77.8074 13.6755C77.8074 21.2288 83.9361 27.351 91.4973 27.351C95.6534 27.351 99.3791 25.4987 101.889 22.5761L98.3278 19.388C96.6931 21.3355 94.2411 22.5732 91.4973 22.5732V22.579Z" fill="white"/>
<path d="M97.109 11.2896H92.3262V16.0644H97.109L101.889 11.2896H97.109Z" fill="white"/>
<path d="M123.455 11.2896H108.997V16.0644H123.455V11.2896Z" fill="white"/>
<path d="M108.997 27.354H123.458L128.238 22.5791H108.997V27.354Z" fill="white"/>
<path d="M123.458 4.77781V0.00292969H104.217L108.996 4.77781H123.458Z" fill="white"/>
<path d="M138.655 4.77781H149.867L154.647 0.00292969H138.667C134.225 0.00292969 130.626 3.60067 130.626 8.03511C130.626 11.9473 133.425 15.2046 137.133 15.9202L141.766 11.2924H138.655C136.856 11.2924 135.395 9.83543 135.395 8.03511C135.395 6.23479 136.853 4.77781 138.655 4.77781Z" fill="white"/>
<path d="M148.14 11.4368L143.507 16.0645H146.606C148.409 16.0645 149.867 17.5215 149.867 19.3218C149.867 21.1221 148.409 22.5791 146.606 22.5791H135.406L130.626 27.354H146.606C151.048 27.354 154.647 23.7591 154.647 19.3218C154.647 15.4096 151.848 12.1523 148.14 11.4368Z" fill="white"/>
<path d="M63.1613 0.0750161C62.6906 0.0259689 62.2111 0 61.7259 0H52.8535V16.0615L57.515 11.2866V4.77488H61.7259C66.6474 4.77488 70.6359 8.75925 70.6359 13.6755C70.6359 18.5918 66.6502 22.5703 61.7346 22.5761H48.3739H43.594L45.6821 27.351H61.7259C62.2169 27.351 62.705 27.325 63.1816 27.276C70.0554 26.5489 75.4158 20.7383 75.4158 13.6784C75.4158 6.61847 70.0467 0.793415 63.1613 0.077904V0.0750161Z" fill="white"/>
</svg>
