<svg width="36" height="38" viewBox="0 0 36 38" fill="none" xmlns="http://www.w3.org/2000/svg">
<path d="M1 23.4832V14.8899C1 12.3017 2.25217 9.87339 4.36076 8.37247L13.0151 2.21222C15.7299 0.27975 19.3583 0.232567 22.1225 2.09379L31.4682 8.38661C33.6761 9.87328 35 12.3607 35 15.0225V24.4515C35 27.3349 33.4483 29.9953 30.9385 31.4148L21.8654 36.5466C19.2102 38.0484 15.932 37.9095 13.4133 36.1884L4.48644 30.0883C2.30478 28.5975 1 26.1256 1 23.4832Z" stroke="#B635E9" stroke-width="0.5" stroke-dasharray="2 2"/>
<mask id="path-2-outside-1_1_3" maskUnits="userSpaceOnUse" x="14" y="14" width="8" height="12" fill="black">
<rect fill="white" x="14" y="14" width="8" height="12"/>
<path d="M17.8919 14.41C18.8819 14.41 19.6819 14.69 20.2919 15.25C20.9019 15.81 21.2069 16.56 21.2069 17.5C21.2069 18.55 20.8819 19.33 20.2319 19.84C19.5819 20.34 18.7019 20.59 17.5919 20.59L17.5469 22.015H16.3619L16.3019 19.645H16.7369C17.7269 19.645 18.5019 19.495 19.0619 19.195C19.6219 18.895 19.9019 18.33 19.9019 17.5C19.9019 16.9 19.7219 16.425 19.3619 16.075C19.0019 15.725 18.5169 15.55 17.9069 15.55C17.2869 15.55 16.7969 15.72 16.4369 16.06C16.0869 16.39 15.9119 16.845 15.9119 17.425H14.6219C14.6219 16.825 14.7569 16.3 15.0269 15.85C15.2969 15.39 15.6769 15.035 16.1669 14.785C16.6669 14.535 17.2419 14.41 17.8919 14.41ZM16.9469 25.09C16.6869 25.09 16.4669 25 16.2869 24.82C16.1069 24.64 16.0169 24.42 16.0169 24.16C16.0169 23.9 16.1069 23.68 16.2869 23.5C16.4669 23.32 16.6869 23.23 16.9469 23.23C17.1969 23.23 17.4069 23.32 17.5769 23.5C17.7569 23.68 17.8469 23.9 17.8469 24.16C17.8469 24.42 17.7569 24.64 17.5769 24.82C17.4069 25 17.1969 25.09 16.9469 25.09Z"/>
</mask>
<path d="M20.2919 15.25L20.4948 15.029L20.2919 15.25ZM20.2319 19.84L20.4148 20.0778L20.4171 20.076L20.2319 19.84ZM17.5919 20.59V20.29H17.3012L17.292 20.5805L17.5919 20.59ZM17.5469 22.015V22.315H17.8376L17.8467 22.0245L17.5469 22.015ZM16.3619 22.015L16.062 22.0226L16.0694 22.315H16.3619V22.015ZM16.3019 19.645V19.345H15.9942L16.002 19.6526L16.3019 19.645ZM19.0619 19.195L18.9202 18.9306L19.0619 19.195ZM16.4369 16.06L16.6427 16.2783L16.6429 16.2781L16.4369 16.06ZM15.9119 17.425V17.725H16.2119V17.425H15.9119ZM14.6219 17.425H14.3219V17.725H14.6219V17.425ZM15.0269 15.85L15.2842 16.0044L15.2856 16.0019L15.0269 15.85ZM16.1669 14.785L16.0327 14.5167L16.0306 14.5178L16.1669 14.785ZM16.2869 24.82L16.0748 25.0321H16.0748L16.2869 24.82ZM16.2869 23.5L16.0748 23.2879L16.2869 23.5ZM17.5769 23.5L17.3587 23.7061L17.3648 23.7121L17.5769 23.5ZM17.5769 24.82L17.3647 24.6078L17.3588 24.614L17.5769 24.82ZM17.8919 14.71C18.8223 14.71 19.5448 14.9714 20.089 15.471L20.4948 15.029C19.819 14.4086 18.9415 14.11 17.8919 14.11V14.71ZM20.089 15.471C20.6285 15.9662 20.9069 16.6315 20.9069 17.5H21.5069C21.5069 16.4885 21.1753 15.6538 20.4948 15.029L20.089 15.471ZM20.9069 17.5C20.9069 18.4852 20.6052 19.1658 20.0467 19.604L20.4171 20.076C21.1586 19.4942 21.5069 18.6148 21.5069 17.5H20.9069ZM20.049 19.6022C19.4672 20.0497 18.6589 20.29 17.5919 20.29V20.89C18.7449 20.89 19.6966 20.6303 20.4148 20.0778L20.049 19.6022ZM17.292 20.5805L17.247 22.0055L17.8467 22.0245L17.8917 20.5995L17.292 20.5805ZM17.5469 21.715H16.3619V22.315H17.5469V21.715ZM16.6618 22.0074L16.6018 19.6374L16.002 19.6526L16.062 22.0226L16.6618 22.0074ZM16.3019 19.945H16.7369V19.345H16.3019V19.945ZM16.7369 19.945C17.7513 19.945 18.5823 19.7923 19.2036 19.4594L18.9202 18.9306C18.4215 19.1977 17.7025 19.345 16.7369 19.345V19.945ZM19.2036 19.4594C19.8915 19.0909 20.2019 18.4012 20.2019 17.5H19.6019C19.6019 18.2588 19.3523 18.6991 18.9202 18.9306L19.2036 19.4594ZM20.2019 17.5C20.2019 16.836 20.0003 16.2772 19.571 15.8599L19.1528 16.2901C19.4435 16.5728 19.6019 16.964 19.6019 17.5H20.2019ZM19.571 15.8599C19.1434 15.4442 18.5772 15.25 17.9069 15.25V15.85C18.4566 15.85 18.8604 16.0058 19.1528 16.2901L19.571 15.8599ZM17.9069 15.25C17.2305 15.25 16.6597 15.4369 16.2309 15.8419L16.6429 16.2781C16.9341 16.0031 17.3433 15.85 17.9069 15.85V15.25ZM16.2311 15.8417C15.8088 16.2399 15.6119 16.7807 15.6119 17.425H16.2119C16.2119 16.9093 16.365 16.5401 16.6427 16.2783L16.2311 15.8417ZM15.9119 17.125H14.6219V17.725H15.9119V17.125ZM14.9219 17.425C14.9219 16.8714 15.0459 16.4014 15.2841 16.0043L14.7696 15.6957C14.4678 16.1986 14.3219 16.7786 14.3219 17.425H14.9219ZM15.2856 16.0019C15.5257 15.5928 15.8625 15.2771 16.3032 15.0522L16.0306 14.5178C15.4913 14.7929 15.0681 15.1872 14.7682 15.6981L15.2856 16.0019ZM16.3011 15.0533C16.7531 14.8273 17.2809 14.71 17.8919 14.71V14.11C17.2029 14.11 16.5807 14.2427 16.0327 14.5167L16.3011 15.0533ZM16.9469 24.79C16.7646 24.79 16.6214 24.7303 16.499 24.6079L16.0748 25.0321C16.3124 25.2697 16.6092 25.39 16.9469 25.39V24.79ZM16.499 24.6079C16.3766 24.4855 16.3169 24.3423 16.3169 24.16H15.7169C15.7169 24.4977 15.8372 24.7945 16.0748 25.0321L16.499 24.6079ZM16.3169 24.16C16.3169 23.9777 16.3766 23.8345 16.499 23.7121L16.0748 23.2879C15.8372 23.5255 15.7169 23.8223 15.7169 24.16H16.3169ZM16.499 23.7121C16.6214 23.5897 16.7646 23.53 16.9469 23.53V22.93C16.6092 22.93 16.3124 23.0503 16.0748 23.2879L16.499 23.7121ZM16.9469 23.53C17.1153 23.53 17.2461 23.5867 17.3588 23.706L17.795 23.294C17.5677 23.0533 17.2785 22.93 16.9469 22.93V23.53ZM17.3648 23.7121C17.4872 23.8345 17.5469 23.9777 17.5469 24.16H18.1469C18.1469 23.8223 18.0266 23.5255 17.789 23.2879L17.3648 23.7121ZM17.5469 24.16C17.5469 24.3423 17.4872 24.4855 17.3648 24.6079L17.789 25.0321C18.0266 24.7945 18.1469 24.4977 18.1469 24.16H17.5469ZM17.3588 24.614C17.2461 24.7333 17.1153 24.79 16.9469 24.79V25.39C17.2785 25.39 17.5677 25.2667 17.795 25.026L17.3588 24.614Z" fill="#B635E9" mask="url(#path-2-outside-1_1_3)"/>
</svg>
