<svg width="15" height="15" viewBox="0 0 15 15" fill="none" xmlns="http://www.w3.org/2000/svg">
<g opacity="0.6">
<path d="M3.78298 1.69871L7.64298 5.55871L11.483 1.71871C11.5678 1.62843 11.67 1.55621 11.7834 1.50637C11.8968 1.45654 12.0191 1.43013 12.143 1.42871C12.4082 1.42871 12.6626 1.53407 12.8501 1.7216C13.0376 1.90914 13.143 2.16349 13.143 2.42871C13.1453 2.55131 13.1226 2.6731 13.0761 2.78659C13.0297 2.90009 12.9606 3.0029 12.873 3.08871L8.98298 6.92871L12.873 10.8187C13.0378 10.98 13.1344 11.1983 13.143 11.4287C13.143 11.6939 13.0376 11.9483 12.8501 12.1358C12.6626 12.3234 12.4082 12.4287 12.143 12.4287C12.0155 12.434 11.8884 12.4127 11.7696 12.3662C11.6508 12.3198 11.543 12.2491 11.453 12.1587L7.64298 8.29871L3.79298 12.1487C3.70849 12.236 3.60755 12.3057 3.49599 12.3537C3.38442 12.4018 3.26445 12.4273 3.14298 12.4287C2.87777 12.4287 2.62341 12.3234 2.43588 12.1358C2.24834 11.9483 2.14298 11.6939 2.14298 11.4287C2.14065 11.3061 2.1634 11.1843 2.20983 11.0708C2.25626 10.9573 2.32539 10.8545 2.41298 10.7687L6.30298 6.92871L2.41298 3.03871C2.24817 2.87747 2.15152 2.65912 2.14298 2.42871C2.14298 2.16349 2.24834 1.90914 2.43588 1.7216C2.62341 1.53407 2.87777 1.42871 3.14298 1.42871C3.38298 1.43171 3.61299 1.52871 3.78298 1.69871Z" fill="white"/>
</g>
</svg>
