<svg width="14" height="16" viewBox="0 0 14 16" fill="none" xmlns="http://www.w3.org/2000/svg">
<path d="M2 16C0.895432 16 0 15.1046 0 14V6.32542C0 5.70134 0.291315 5.11304 0.787664 4.73475L5.78786 0.923835C6.50386 0.378137 7.4962 0.378059 8.21228 0.923645L13.2121 4.73302C13.7086 5.1113 14 5.6997 14 6.32388V14C14 15.1046 13.1046 16 12 16H10.7474C9.64288 16 8.74745 15.1046 8.74745 14V11.4628C8.74745 10.4977 7.96509 9.71531 7 9.71531V9.71531C6.03491 9.71531 5.25255 10.4977 5.25255 11.4628V14C5.25255 15.1046 4.35712 16 3.25256 16H2Z" fill="#0E0E0E"/>
</svg>
