<svg width="35" height="36" viewBox="0 0 35 36" fill="none" xmlns="http://www.w3.org/2000/svg">
<path d="M26.6343 1.03418L26.5146 1.40165L26.4264 1.67145L17.3568 6.56233L8.2876 1.67145L8.19936 1.40165L8.07971 1.03418L17.3568 4.83896L26.6343 1.03418Z" fill="#0E0E0E"/>
<path d="M34.714 0L33.7713 2.62823L17.3568 14.6663L0.942723 2.62823L0 0L17.3568 8.92902L34.714 0Z" fill="#0E0E0E"/>
<path d="M31.2725 7.87939L29.9244 10.5111L22.6589 19.9869L20.1153 33.9045L19.3669 35.9997L20.4865 19.116L31.2725 7.87939Z" fill="#0E0E0E"/>
<path d="M15.3468 35.9997L14.5988 33.9045L12.0551 19.9869L4.78967 10.5111L3.44153 7.87939L14.2276 19.116L15.3468 35.9997Z" fill="#0E0E0E"/>
</svg>
