<svg width="14" height="15" viewBox="0 0 14 15" fill="none" xmlns="http://www.w3.org/2000/svg">
<path opacity="0.6" d="M12.6477 14.7653L8.19318 9.98577C7.79545 10.3272 7.33807 10.5974 6.82102 10.7966C6.30398 10.9957 5.75379 11.0953 5.17045 11.0953C3.72538 11.0953 2.5025 10.5585 1.50182 9.48478C0.500606 8.41053 0 7.09815 0 5.54765C0 3.99715 0.500606 2.68478 1.50182 1.61053C2.5025 0.536842 3.72538 0 5.17045 0C6.61553 0 7.83867 0.536842 8.83989 1.61053C9.84057 2.68478 10.3409 3.99715 10.3409 5.54765C10.3409 6.17354 10.2481 6.76387 10.0625 7.31863C9.87689 7.8734 9.625 8.36415 9.30682 8.7909L13.7812 13.5917C13.9271 13.7482 14 13.9403 14 14.1679C14 14.3954 13.9205 14.5946 13.7614 14.7653C13.6155 14.9218 13.4299 15 13.2045 15C12.9792 15 12.7936 14.9218 12.6477 14.7653ZM5.17045 9.38834C6.16477 9.38834 7.01008 9.01508 7.70636 8.26856C8.40212 7.52148 8.75 6.61451 8.75 5.54765C8.75 4.4808 8.40212 3.57383 7.70636 2.82674C7.01008 2.08023 6.16477 1.70697 5.17045 1.70697C4.17614 1.70697 3.33083 2.08023 2.63455 2.82674C1.93879 3.57383 1.59091 4.4808 1.59091 5.54765C1.59091 6.61451 1.93879 7.52148 2.63455 8.26856C3.33083 9.01508 4.17614 9.38834 5.17045 9.38834Z" fill="white"/>
</svg>
