<svg width="24" height="22" viewBox="0 0 24 22" fill="none" xmlns="http://www.w3.org/2000/svg">
<path d="M11.9085 10.3207C10.3803 10.3207 9.07202 9.81541 7.98371 8.80485C6.8954 7.79428 6.35124 6.57944 6.35124 5.16036C6.35124 3.74125 6.8954 2.52642 7.98371 1.51587C9.07202 0.505289 10.3803 0 11.9085 0C13.4368 0 14.7451 0.505289 15.8334 1.51587C16.9217 2.52642 17.4658 3.74125 17.4658 5.16036C17.4658 6.57944 16.9217 7.79428 15.8334 8.80485C14.7451 9.81541 13.4368 10.3207 11.9085 10.3207ZM0 21.5488V18.2711C0 17.5491 0.211205 16.8804 0.633615 16.2651C1.056 15.6499 1.62037 15.1768 2.32674 14.846C3.89623 14.1315 5.47947 13.5956 7.07643 13.2384C8.6734 12.8811 10.2841 12.7025 11.9085 12.7025C13.533 12.7025 15.1437 12.8811 16.7406 13.2384C18.3376 13.5956 19.9208 14.1315 21.4903 14.846C22.1967 15.1768 22.7611 15.6499 23.1835 16.2651C23.6059 16.8804 23.8171 17.5491 23.8171 18.2711V21.5488H0ZM2.38168 19.3372H21.4354V18.2711C21.4354 17.9725 21.3423 17.696 21.156 17.4418C20.9697 17.1875 20.7168 16.9801 20.3972 16.8194C19.0293 16.1937 17.6344 15.7197 16.2126 15.3974C14.7908 15.0752 13.3561 14.914 11.9085 14.914C10.4609 14.914 9.02624 15.0752 7.60446 15.3974C6.18268 15.7197 4.78782 16.1937 3.41986 16.8194C3.10026 16.9801 2.84734 17.1875 2.66109 17.4418C2.47481 17.696 2.38168 17.9725 2.38168 18.2711V19.3372ZM11.9085 8.10916C12.7818 8.10916 13.5294 7.82042 14.1513 7.24295C14.7732 6.66547 15.0842 5.97128 15.0842 5.16036C15.0842 4.34944 14.7732 3.65524 14.1513 3.07777C13.5294 2.5003 12.7818 2.21156 11.9085 2.21156C11.0352 2.21156 10.2876 2.5003 9.66575 3.07777C9.04386 3.65524 8.73292 4.34944 8.73292 5.16036C8.73292 5.97128 9.04386 6.66547 9.66575 7.24295C10.2876 7.82042 11.0352 8.10916 11.9085 8.10916Z" fill="white"/>
</svg>
